# xmcd
#
# Track frame offsets: 
#        150
#        12243
#        22728
#        36832
#        46763
#        58856
#        76500
#        91209
#        111477
#        123245
#        132947
#        144542
#        160976
#        171840
#        181554
#        189529
#        201582
#
# Disc length: 2766 seconds
#
# Revision: 0
# Processed by: cddbd v1.5.2PL0 Copyright (c) Steve Scherf et al.
# Submitted via: ExactAudioCopy v0.99pb5
#
DISCID=da0acc11
DTITLE=Roger Bellow - On The Border
DYEAR=2004
DGENRE=Country
TTITLE0=La Ultima Noche
TTITLE1=Rayito de Luna
TTITLE2=Born To Lose
TTITLE3=Si Jam Blues
TTITLE4=Ni Que Si, Ni Quizas, Ni Que No
TTITLE5=Solamente Una Vez
TTITLE6=Yours
TTITLE7=The Last Letter
TTITLE8=Vintage Country Intro - El Rancho Grande
TTITLE9=Sick, Sober and Sorry
TTITLE10=Two Glasses Joe
TTITLE11=I'll Keep On Loving You
TTITLE12=Blue Shadows On The Trail
TTITLE13=Riverdale Flash
TTITLE14=Why Don't You Haul Off And Love Me
TTITLE15=Gone Home
TTITLE16=Hold It
EXTD=
EXTT0=
EXTT1=
EXTT2=
EXTT3=
EXTT4=
EXTT5=
EXTT6=
EXTT7=
EXTT8=
EXTT9=
EXTT10=
EXTT11=
EXTT12=
EXTT13=
EXTT14=
EXTT15=
EXTT16=
PLAYORDER=
